# xmcd CD database file
#
# Track frame offsets:
#	150
#	13442
#	28213
#	44851
#	58481
#	72930
#	87110
#	103658
#	120623
#	135212
#	162764
#	173741
#	186850
#	200097
#	213172
#	238317
#	271000
#	286874
#	302034
#	315052
#
# Disc length: 4394 seconds
#
# Revision: 0
# Processed by: cddbd v1.4PL0 Copyright (c) Steve Scherf et al.
# Submitted via: CDex 1.50Beta7
#
DISCID=22112814
DTITLE=Oscar peterson - Fascinating Rhythm
DYEAR=1900
DGENRE=Jazz
TTITLE0=Fascinating rhythm
TTITLE1=Prelude to a kiss
TTITLE2=Just a-sittin' and a-rockin'
TTITLE3=Cheek to cheek
TTITLE4=It aint't necessarily so
TTITLE5=What is this thing called love
TTITLE6=Night and day
TTITLE7=Long ago and far away
TTITLE8=Easter parade
TTITLE9=Tea for two
TTITLE10=The song is you
TTITLE11=Blue moon
TTITLE12=Without a song
TTITLE13=The lady is a tramp
TTITLE14=I want to be happy
TTITLE15=Lover
TTITLE16=The man i love
TTITLE17=Somebody loves me
TTITLE18=I've got a crush on you
TTITLE19=Strike up the band
EXTD=
EXTT0=
EXTT1=
EXTT2=
EXTT3=
EXTT4=
EXTT5=
EXTT6=
EXTT7=
EXTT8=
EXTT9=
EXTT10=
EXTT11=
EXTT12=
EXTT13=
EXTT14=
EXTT15=
EXTT16=
EXTT17=
EXTT18=
EXTT19=
PLAYORDER=
